REM DIRINDEX 1\2,1\3,1\4,1\5
REM DIRNAME folder01,folder02,folder03,folder04,folder05
TITLE ""
FILE "1Q_t_0880-0889.mp3" MP3
  TRACK 01 AUDIO
    TITLE "3:cjc004_3543"
    INDEX 01 00:00:00
  TRACK 02 AUDIO
    TITLE "0:"
    INDEX 01 00:01:07
  TRACK 03 AUDIO
    TITLE "4:cjc004_3544"
    INDEX 01 00:01:36
  TRACK 04 AUDIO
    TITLE "0:"
    INDEX 01 00:02:63
  TRACK 05 AUDIO
    TITLE "5:cjc004_3545"
    INDEX 01 00:03:14
  TRACK 06 AUDIO
    TITLE "0:"
    INDEX 01 00:07:58
  TRACK 07 AUDIO
    TITLE "3:cjc004_3546"
    INDEX 01 00:08:34
  TRACK 08 AUDIO
    TITLE "0:"
    INDEX 01 00:09:51
  TRACK 09 AUDIO
    TITLE "4:cjc004_3547"
    INDEX 01 00:10:02
  TRACK 10 AUDIO
    TITLE "0:"
    INDEX 01 00:11:09
  TRACK 11 AUDIO
    TITLE "5:cjc004_3548"
    INDEX 01 00:11:37
  TRACK 12 AUDIO
    TITLE "0:"
    INDEX 01 00:14:66
  TRACK 13 AUDIO
    TITLE "3:cjc004_3549"
    INDEX 01 00:15:44
  TRACK 14 AUDIO
    TITLE "0:"
    INDEX 01 00:16:61
  TRACK 15 AUDIO
    TITLE "4:cjc004_3550"
    INDEX 01 00:17:12
  TRACK 16 AUDIO
    TITLE "0:"
    INDEX 01 00:18:58
  TRACK 17 AUDIO
    TITLE "5:cjc004_3551"
    INDEX 01 00:19:03
  TRACK 18 AUDIO
    TITLE "0:"
    INDEX 01 00:24:18
  TRACK 19 AUDIO
    TITLE "3:cjc004_3552"
    INDEX 01 00:24:69
  TRACK 20 AUDIO
    TITLE "0:"
    INDEX 01 00:26:18
  TRACK 21 AUDIO
    TITLE "4:cjc004_3553"
    INDEX 01 00:26:44
  TRACK 22 AUDIO
    TITLE "0:"
    INDEX 01 00:27:63
  TRACK 23 AUDIO
    TITLE "5:cjc004_3554"
    INDEX 01 00:28:12
  TRACK 24 AUDIO
    TITLE "0:"
    INDEX 01 00:32:11
  TRACK 25 AUDIO
    TITLE "3:cjc004_3555"
    INDEX 01 00:32:64
  TRACK 26 AUDIO
    TITLE "0:"
    INDEX 01 00:34:04
  TRACK 27 AUDIO
    TITLE "4:cjc004_3556"
    INDEX 01 00:34:32
  TRACK 28 AUDIO
    TITLE "0:"
    INDEX 01 00:35:39
  TRACK 29 AUDIO
    TITLE "5:cjc004_3557"
    INDEX 01 00:35:64
  TRACK 30 AUDIO
    TITLE "0:"
    INDEX 01 00:39:70
  TRACK 31 AUDIO
    TITLE "3:cjc004_3558"
    INDEX 01 00:40:42
  TRACK 32 AUDIO
    TITLE "0:"
    INDEX 01 00:41:53
  TRACK 33 AUDIO
    TITLE "4:cjc004_3559"
    INDEX 01 00:42:04
  TRACK 34 AUDIO
    TITLE "0:"
    INDEX 01 00:43:25
  TRACK 35 AUDIO
    TITLE "5:cjc004_3560"
    INDEX 01 00:43:52
  TRACK 36 AUDIO
    TITLE "0:"
    INDEX 01 00:47:72
  TRACK 37 AUDIO
    TITLE "3:cjc004_3561"
    INDEX 01 00:48:51
  TRACK 38 AUDIO
    TITLE "0:"
    INDEX 01 00:49:72
  TRACK 39 AUDIO
    TITLE "4:cjc004_3562"
    INDEX 01 00:50:25
  TRACK 40 AUDIO
    TITLE "0:"
    INDEX 01 00:51:52
  TRACK 41 AUDIO
    TITLE "5:cjc004_3563"
    INDEX 01 00:52:02
  TRACK 42 AUDIO
    TITLE "0:"
    INDEX 01 00:59:04
  TRACK 43 AUDIO
    TITLE "3:cjc004_3564"
    INDEX 01 00:59:55
  TRACK 44 AUDIO
    TITLE "0:"
    INDEX 01 01:01:03
  TRACK 45 AUDIO
    TITLE "4:cjc004_3565"
    INDEX 01 01:01:33
  TRACK 46 AUDIO
    TITLE "0:"
    INDEX 01 01:02:63
  TRACK 47 AUDIO
    TITLE "5:cjc004_3566"
    INDEX 01 01:03:14
  TRACK 48 AUDIO
    TITLE "0:"
    INDEX 01 01:09:24
  TRACK 49 AUDIO
    TITLE "3:cjc004_3567"
    INDEX 01 01:10:00
  TRACK 50 AUDIO
    TITLE "0:"
    INDEX 01 01:11:39
  TRACK 51 AUDIO
    TITLE "4:cjc004_3568"
    INDEX 01 01:11:66
  TRACK 52 AUDIO
    TITLE "0:"
    INDEX 01 01:13:45
  TRACK 53 AUDIO
    TITLE "5:cjc004_3569"
    INDEX 01 01:13:69
  TRACK 54 AUDIO
    TITLE "0:"
    INDEX 01 01:18:33
  TRACK 55 AUDIO
    TITLE "3:cjc004_3570"
    INDEX 01 01:19:11
  TRACK 56 AUDIO
    TITLE "0:"
    INDEX 01 01:20:36
  TRACK 57 AUDIO
    TITLE "4:cjc004_3571"
    INDEX 01 01:20:65
  TRACK 58 AUDIO
    TITLE "0:"
    INDEX 01 01:22:21
  TRACK 59 AUDIO
    TITLE "5:cjc004_3572"
    INDEX 01 01:22:48
  TRACK 60 AUDIO
    TITLE "0:"
    INDEX 01 01:26:64
